<?xml version="1.0" encoding="UTF-8" standalone="no"?>
<svg
   xmlns:dc="http://purl.org/dc/elements/1.1/"
   xmlns:cc="http://creativecommons.org/ns#"
   xmlns:rdf="http://www.w3.org/1999/02/22-rdf-syntax-ns#"
   xmlns:svg="http://www.w3.org/2000/svg"
   xmlns="http://www.w3.org/2000/svg"
   xmlns:sodipodi="http://sodipodi.sourceforge.net/DTD/sodipodi-0.dtd"
   xmlns:inkscape="http://www.inkscape.org/namespaces/inkscape"
   version="1.1"
   height="100%"
   width="100%"
   viewBox="0 0 100 54"
   id="icon-logo"
   sodipodi:docname="logo.svg"
   inkscape:version="0.92.3 (2405546, 2018-03-11)">
  <sodipodi:namedview
     pagecolor="#ffffff"
     bordercolor="#666666"
     borderopacity="1"
     objecttolerance="10"
     gridtolerance="10"
     guidetolerance="10"
     inkscape:pageopacity="0"
     inkscape:pageshadow="2"
     inkscape:window-width="1920"
     inkscape:window-height="1017"
     id="namedview20"
     showgrid="false"
     inkscape:zoom="15.7"
     inkscape:cx="39.649682"
     inkscape:cy="27"
     inkscape:window-x="-8"
     inkscape:window-y="667"
     inkscape:window-maximized="1"
     inkscape:current-layer="icon-logo" />
  <metadata
     id="metadata26">
    <rdf:RDF>
      <cc:Work
         rdf:about="">
        <dc:format>image/svg+xml</dc:format>
        <dc:type
           rdf:resource="http://purl.org/dc/dcmitype/StillImage" />
        <dc:title />
      </cc:Work>
    </rdf:RDF>
  </metadata>
  <defs
     id="defs24" />
  <path
     id="path19"
     d="M14.214                             18.111h5.017v6.206h5.351v-6.206h5.017V35.05h-5.017v-6.709h-5.351v6.709h-5.017V18.111zm33.278                             0V35.05h-4.849V22.137h-3.178V27c0 2.18-.168 4.863-1.505 6.373-1.338 1.677-3.846 2.18-6.689                             1.677v-4.193c2.675.503 3.345-.503 3.345-3.857v-8.889h12.876zm4.181 0h5.016l2.843 10.063 2.843-10.063h5.016l2.342                             16.939h-4.684l-1.17-9.056-2.675 9.056H57.86l-2.676-9.056-1.171 9.056h-4.682l2.342-16.939zm19.899                             0h5.016v6.876l4.851-6.876h5.517l-6.354 8.386 6.521 8.553h-6.02l-4.515-6.876v6.876h-5.016V18.111zM50 0C19.9 0 0                             10.9 0 27c0 15.932 19.9 27 50 27 30.267 0 50-11.068 50-27 0-16.1-19.733-27-50-27m0 51.485C21.739 51.485 2.843                             41.59 2.843 27 2.843 12.242 21.739 2.515 50 2.515c28.428 0 47.157 9.727 47.157 24.485 0 14.59-18.729                             24.485-47.157 24.485m0-46.623C23.412 4.862 5.686 13.751 5.686 27c0 13.249 17.726 22.137 44.314 22.137S94.314                             40.249 94.314 27 76.588 4.862 50 4.862m0 43.772C23.746 48.634 6.187 39.913 6.187 27S23.746 5.366 50 5.366 93.813                             14.087 93.813 27 76.254 48.634 50 48.634"
     fill-rule="evenodd"
     style="fill:#004e94;fill-opacity:1" />
</svg>
